<svg width="32" height="32" viewBox="0 0 32 32" fill="none" xmlns="http://www.w3.org/2000/svg">
<g clip-path="url(#clip0_1_1921)">
<path fill-rule="evenodd" clip-rule="evenodd" d="M6.5625 0H25.4375C27.1765 0.00481055 28.8429 0.69776 30.0726 1.92743C31.3022 3.15709 31.9952 4.8235 32 6.5625V25.4375C31.9952 27.1765 31.3022 28.8429 30.0726 30.0726C28.8429 31.3022 27.1765 31.9952 25.4375 32H6.5625C4.8235 31.9952 3.15709 31.3022 1.92743 30.0726C0.69776 28.8429 0.00481055 27.1765 0 25.4375L0 6.5625C0.00481055 4.8235 0.69776 3.15709 1.92743 1.92743C3.15709 0.69776 4.8235 0.00481055 6.5625 0Z" fill="#3B5998"/>
<path fill-rule="evenodd" clip-rule="evenodd" d="M18.0391 9.19539H21.4427V5.11206H18.0391C16.7774 5.1155 15.5684 5.61859 14.6767 6.51123C13.7851 7.40388 13.2833 8.61338 13.2812 9.87508V11.9167H10.5573V16.0001H13.2812V26.8881H17.362V16.0001H20.763L21.4427 11.9167H17.362V9.87508C17.364 9.69589 17.4359 9.52457 17.5624 9.39761C17.6888 9.27066 17.8599 9.1981 18.0391 9.19539Z" fill="white"/>
</g>
<defs>
<clipPath id="clip0_1_1921">
<rect width="32" height="32" fill="white"/>
</clipPath>
</defs>
</svg>
