<svg width="40" height="40" viewBox="0 0 40 40" fill="none" xmlns="http://www.w3.org/2000/svg">
<path d="M20.0099 5.89968C22.7519 4.14641 26.1079 3.69784 29.2011 4.67117C31.8914 5.50782 34.1285 7.42958 35.3923 9.98971C36.87 13.0926 37.0712 16.668 35.9511 19.9226C34.9202 22.9188 33.23 25.6349 31.0099 27.863C29.5543 29.3591 27.9857 30.7367 26.3187 31.983L26.2305 32.0579C25.6766 32.4307 24.9319 32.2843 24.554 31.7283C24.3619 31.4598 24.2847 31.1234 24.3402 30.7959C24.3956 30.4685 24.5788 30.1779 24.8481 29.9904C26.4124 28.8118 27.8871 27.5147 29.2599 26.1101C31.2369 24.1646 32.7467 21.7806 33.6717 19.1436C34.5614 16.5159 34.3814 13.6348 33.1717 11.1433C32.1983 9.18334 30.4831 7.71192 28.4217 7.06826C25.7923 6.23063 22.9276 6.73841 20.7304 8.4316C20.2936 8.76124 19.6967 8.76124 19.2598 8.4316C17.0637 6.73606 14.1979 6.22807 11.5686 7.06826C9.49331 7.6977 7.7611 9.16467 6.77448 11.1283C5.59213 13.6179 5.423 16.4826 6.30389 19.0986C7.23282 21.7293 8.74218 24.1076 10.7157 26.0502C13.6317 28.8987 16.8473 31.4108 20.304 33.5411C20.7436 33.8518 20.937 34.4155 20.7829 34.9375C20.6288 35.4595 20.1624 35.8211 19.6275 35.8333C19.3864 35.8347 19.1505 35.7616 18.951 35.6235C15.3502 33.4049 12.0013 30.7871 8.96567 27.818C6.73326 25.5972 5.03684 22.8793 4.00975 19.8777C2.92839 16.6276 3.15037 13.074 4.62741 9.98971C5.8912 7.42958 8.12829 5.50782 10.8186 4.67117C13.9118 3.69784 17.2678 4.14641 20.0099 5.89968ZM26.2934 10.8283L26.4805 10.8287C28.6733 11.5339 30.2341 13.5141 30.4364 15.8476L30.4458 16.0431C30.438 16.3029 30.3493 16.5552 30.1901 16.7625C29.9911 17.0216 29.6984 17.1885 29.3776 17.2259C28.7041 17.3146 28.0866 16.8328 27.9952 16.1472C27.9337 14.7627 27.0287 13.5652 25.7305 13.1509C25.2478 12.8439 25.0334 12.2407 25.2113 11.69C25.3891 11.1394 25.9132 10.7837 26.4805 10.8287L26.2934 10.8283Z" fill="white"/>
</svg>
