<svg width="32" height="32" viewBox="0 0 32 32" fill="none" xmlns="http://www.w3.org/2000/svg">
<g clip-path="url(#clip0_1_1917)">
<path d="M16.0078 0.242432C9.42808 0.242432 7.50378 0.249219 7.12973 0.280249C5.77946 0.392488 4.93925 0.605087 4.02388 1.06083C3.31845 1.41112 2.7621 1.81717 2.21303 2.38637C1.21306 3.4244 0.607014 4.70145 0.387627 6.21946C0.280963 6.95641 0.249934 7.10671 0.243631 10.871C0.241207 12.1257 0.243631 13.7771 0.243631 15.992C0.243631 22.5664 0.250904 24.4887 0.282418 24.862C0.391505 26.1759 0.59756 27.0026 1.03391 27.9068C1.86782 29.6377 3.4605 30.937 5.33681 31.4219C5.98649 31.5891 6.70404 31.6812 7.62523 31.7249C8.01552 31.7418 11.9936 31.754 15.9741 31.754C19.9545 31.754 23.935 31.7491 24.3156 31.7297C25.3823 31.6795 26.0016 31.5964 26.6865 31.4194C28.5749 30.9322 30.1385 29.6522 30.9894 27.8971C31.4172 27.0147 31.6342 26.1566 31.7324 24.9113C31.7537 24.6398 31.7627 20.3109 31.7627 15.9879C31.7627 11.6641 31.753 7.34331 31.7317 7.0718C31.6323 5.80638 31.4153 4.9555 30.9736 4.05613C30.6112 3.31991 30.2088 2.77011 29.6246 2.20795C28.5819 1.2121 27.3068 0.606057 25.7873 0.386912C25.0511 0.280491 24.9045 0.248977 21.1373 0.242432H16.0078Z" fill="url(#paint0_radial_1_1917)"/>
<path d="M16.0078 0.242432C9.42808 0.242432 7.50378 0.249219 7.12973 0.280249C5.77946 0.392488 4.93925 0.605087 4.02388 1.06083C3.31845 1.41112 2.7621 1.81717 2.21303 2.38637C1.21306 3.4244 0.607014 4.70145 0.387627 6.21946C0.280963 6.95641 0.249934 7.10671 0.243631 10.871C0.241207 12.1257 0.243631 13.7771 0.243631 15.992C0.243631 22.5664 0.250904 24.4887 0.282418 24.862C0.391505 26.1759 0.59756 27.0026 1.03391 27.9068C1.86782 29.6377 3.4605 30.937 5.33681 31.4219C5.98649 31.5891 6.70404 31.6812 7.62523 31.7249C8.01552 31.7418 11.9936 31.754 15.9741 31.754C19.9545 31.754 23.935 31.7491 24.3156 31.7297C25.3823 31.6795 26.0016 31.5964 26.6865 31.4194C28.5749 30.9322 30.1385 29.6522 30.9894 27.8971C31.4172 27.0147 31.6342 26.1566 31.7324 24.9113C31.7537 24.6398 31.7627 20.3109 31.7627 15.9879C31.7627 11.6641 31.753 7.34331 31.7317 7.0718C31.6323 5.80638 31.4153 4.9555 30.9736 4.05613C30.6112 3.31991 30.2088 2.77011 29.6246 2.20795C28.5819 1.2121 27.3068 0.606057 25.7873 0.386912C25.0511 0.280491 24.9045 0.248977 21.1373 0.242432H16.0078Z" fill="url(#paint1_radial_1_1917)"/>
<path d="M16.0005 4.36353C12.8403 4.36353 12.4437 4.37734 11.2026 4.43383C9.96381 4.49055 9.11826 4.68667 8.3784 4.97442C7.61309 5.27162 6.9639 5.66918 6.31713 6.31619C5.66988 6.96296 5.27232 7.61215 4.97414 8.37722C4.68567 9.11732 4.48931 9.96311 4.43355 11.2014C4.37804 12.4426 4.36349 12.8394 4.36349 15.9995C4.36349 19.1597 4.37756 19.5551 4.4338 20.7962C4.49076 22.035 4.68688 22.8805 4.97439 23.6204C5.27183 24.3857 5.66939 25.0349 6.31641 25.6817C6.96293 26.3289 7.61212 26.7275 8.37695 27.0247C9.11729 27.3124 9.96308 27.5085 11.2016 27.5652C12.4428 27.6217 12.8391 27.6355 15.999 27.6355C19.1594 27.6355 19.5548 27.6217 20.796 27.5652C22.0347 27.5085 22.8812 27.3124 23.6216 27.0247C24.3866 26.7275 25.0349 26.3289 25.6814 25.6817C26.3286 25.0349 26.7262 24.3857 27.0244 23.6206C27.3104 22.8805 27.5068 22.0347 27.565 20.7965C27.6207 19.5553 27.6353 19.1597 27.6353 15.9995C27.6353 12.8394 27.6207 12.4428 27.565 11.2016C27.5068 9.96287 27.3104 9.11732 27.0244 8.37746C26.7262 7.61215 26.3286 6.96296 25.6814 6.31619C25.0341 5.66894 24.3869 5.27138 23.6209 4.97442C22.8791 4.68667 22.033 4.49055 20.7943 4.43383C19.5531 4.37734 19.158 4.36353 15.9968 4.36353H16.0005ZM14.9566 6.46043C15.2664 6.45995 15.6121 6.46043 16.0005 6.46043C19.1073 6.46043 19.4755 6.47158 20.7024 6.52734C21.8369 6.57922 22.4526 6.76879 22.8628 6.92805C23.4058 7.13896 23.793 7.39107 24.2 7.79833C24.6072 8.20559 24.8594 8.59346 25.0707 9.13647C25.23 9.54616 25.4198 10.1619 25.4715 11.2964C25.5272 12.523 25.5393 12.8915 25.5393 15.9969C25.5393 19.1022 25.5272 19.4707 25.4715 20.6973C25.4196 21.8318 25.23 22.4476 25.0707 22.8573C24.8598 23.4003 24.6072 23.7869 24.2 24.194C23.7927 24.6012 23.4061 24.8533 22.8628 25.0642C22.4531 25.2242 21.8369 25.4133 20.7024 25.4652C19.4758 25.5209 19.1073 25.5331 16.0005 25.5331C12.8934 25.5331 12.5252 25.5209 11.2986 25.4652C10.164 25.4128 9.54831 25.2233 9.1379 25.064C8.59488 24.8531 8.20701 24.601 7.79975 24.1937C7.39249 23.7865 7.14038 23.3996 6.92899 22.8563C6.76973 22.4466 6.57991 21.8309 6.52828 20.6964C6.47252 19.4697 6.46137 19.1013 6.46137 15.994C6.46137 12.8867 6.47252 12.5201 6.52828 11.2935C6.58016 10.159 6.76973 9.54325 6.92899 9.13308C7.1399 8.59006 7.39249 8.2022 7.79975 7.79494C8.20701 7.38768 8.59488 7.13556 9.1379 6.92418C9.54807 6.76418 10.164 6.5751 11.2986 6.52298C12.372 6.47449 12.788 6.45995 14.9566 6.45752V6.46043ZM22.2117 8.39249C21.4408 8.39249 20.8154 9.0172 20.8154 9.78833C20.8154 10.5592 21.4408 11.1847 22.2117 11.1847C22.9826 11.1847 23.608 10.5592 23.608 9.78833C23.608 9.01745 22.9826 8.39201 22.2117 8.39201V8.39249ZM16.0005 10.024C12.7005 10.024 10.0249 12.6995 10.0249 15.9995C10.0249 19.2996 12.7005 21.9739 16.0005 21.9739C19.3005 21.9739 21.9751 19.2996 21.9751 15.9995C21.9751 12.6995 19.3003 10.024 16.0002 10.024H16.0005ZM16.0005 12.1209C18.1425 12.1209 19.8791 13.8573 19.8791 15.9995C19.8791 18.1415 18.1425 19.8782 16.0005 19.8782C13.8582 19.8782 12.1218 18.1415 12.1218 15.9995C12.1218 13.8573 13.8582 12.1209 16.0005 12.1209Z" fill="white"/>
</g>
<defs>
<radialGradient id="paint0_radial_1_1917" cx="0" cy="0" r="1" gradientUnits="userSpaceOnUse" gradientTransform="translate(8.61513 34.181) rotate(-90) scale(31.2303 29.0545)">
<stop stop-color="#FFDD55"/>
<stop offset="0.1" stop-color="#FFDD55"/>
<stop offset="0.5" stop-color="#FF543E"/>
<stop offset="1" stop-color="#C837AB"/>
</radialGradient>
<radialGradient id="paint1_radial_1_1917" cx="0" cy="0" r="1" gradientUnits="userSpaceOnUse" gradientTransform="translate(-5.03723 2.51247) rotate(78.6776) scale(13.9602 57.559)">
<stop stop-color="#3771C8"/>
<stop offset="0.128" stop-color="#3771C8"/>
<stop offset="1" stop-color="#6600FF" stop-opacity="0"/>
</radialGradient>
<clipPath id="clip0_1_1917">
<rect width="32" height="31.999" fill="white"/>
</clipPath>
</defs>
</svg>
