<svg width="32" height="32" viewBox="0 0 32 32" fill="none" xmlns="http://www.w3.org/2000/svg">
<g clip-path="url(#clip0_1_1924)">
<path fill-rule="evenodd" clip-rule="evenodd" d="M6.5625 0H25.4375C27.1765 0.00481055 28.8429 0.69776 30.0726 1.92743C31.3022 3.15709 31.9952 4.8235 32 6.5625V25.4375C31.9952 27.1765 31.3022 28.8429 30.0726 30.0726C28.8429 31.3022 27.1765 31.9952 25.4375 32H6.5625C4.8235 31.9952 3.15709 31.3022 1.92743 30.0726C0.69776 28.8429 0.00481055 27.1765 0 25.4375L0 6.5625C0.00481055 4.8235 0.69776 3.15709 1.92743 1.92743C3.15709 0.69776 4.8235 0.00481055 6.5625 0Z" fill="#0077B5"/>
<path fill-rule="evenodd" clip-rule="evenodd" d="M7.92447 13.1172H11.3854V23.4974H7.92447V13.1172Z" fill="white"/>
<path fill-rule="evenodd" clip-rule="evenodd" d="M11.3854 10.2319C11.3859 10.5746 11.2847 10.9098 11.0946 11.195C10.9046 11.4801 10.6341 11.7025 10.3176 11.8339C10.001 11.9653 9.65261 11.9998 9.31643 11.9331C8.98026 11.8663 8.67145 11.7014 8.4291 11.459C8.18675 11.2167 8.02176 10.9078 7.95502 10.5717C7.88829 10.2355 7.9228 9.88708 8.0542 9.57053C8.18559 9.25399 8.40796 8.98355 8.69315 8.79346C8.97834 8.60337 9.31352 8.50217 9.65625 8.50269C10.1149 8.50269 10.5547 8.68487 10.879 9.00915C11.2032 9.33343 11.3854 9.77325 11.3854 10.2319Z" fill="white"/>
<path fill-rule="evenodd" clip-rule="evenodd" d="M13.6927 13.1172H16.8854V14.7526H16.9271C17.3724 13.9557 18.4583 13.1172 20.0807 13.1172C23.4479 13.1172 24.0729 15.2135 24.0729 17.9401V23.4974H20.7474V18.5729C20.7474 17.3984 20.724 15.8854 19.0104 15.8854C17.2969 15.8854 17.013 17.1641 17.013 18.4896V23.4974H13.6927V13.1172Z" fill="white"/>
</g>
<defs>
<clipPath id="clip0_1_1924">
<rect width="32" height="32" fill="white"/>
</clipPath>
</defs>
</svg>
