<svg width="69" height="69" viewBox="0 0 69 69" fill="none" xmlns="http://www.w3.org/2000/svg">
<g clip-path="url(#clip0_1_1802)">
<path d="M22.343 12.4105L11.3487 12.765C8.43285 12.859 5.67376 14.1075 3.67841 16.2358C1.68306 18.3641 0.6149 21.1979 0.708915 24.1138L1.0634 35.1081C1.11041 36.566 1.73465 37.9456 2.7988 38.9432C3.86296 39.9409 5.27985 40.475 6.73778 40.428L22.9818 39.9042C22.4535 43.7638 20.5779 47.3123 17.6865 49.9229C14.7952 52.5335 11.0741 54.0381 7.18089 54.1708C6.45192 54.1943 5.76215 54.5065 5.26331 55.0385C4.76447 55.5706 4.49743 56.2791 4.52094 57.008C4.54444 57.737 4.85656 58.4268 5.38864 58.9256C5.92072 59.4244 6.62916 59.6915 7.35813 59.668C13.1876 59.4735 18.702 56.9745 22.6913 52.7194C26.6806 48.4642 28.8192 42.8004 28.6377 36.9704L28.0174 17.7304C27.9704 16.2725 27.3461 14.893 26.282 13.8953C25.2178 12.8976 23.8009 12.3635 22.343 12.4105V12.4105Z" fill="white"/>
<path d="M60.8234 11.1698L49.8291 11.5243C46.9133 11.6183 44.1542 12.8668 42.1588 14.9951C40.1635 17.1234 39.0953 19.9572 39.1893 22.8731L39.5438 33.8674C39.5908 35.3253 40.2151 36.7048 41.2792 37.7025C42.3434 38.7002 43.7603 39.2343 45.2182 39.1873L61.4622 38.6635C60.9339 42.523 59.0583 46.0716 56.1669 48.6822C53.2756 51.2928 49.5546 52.7974 45.6613 52.9301C44.9323 52.9536 44.2426 53.2657 43.7437 53.7978C43.2449 54.3299 42.9778 55.0383 43.0013 55.7673C43.0248 56.4963 43.337 57.1861 43.869 57.6849C44.4011 58.1837 45.1096 58.4508 45.8385 58.4273C51.668 58.2327 57.1824 55.7338 61.1717 51.4786C65.161 47.2235 67.2996 41.5597 67.1181 35.7297L66.4978 16.4897C66.4508 15.0318 65.8265 13.6522 64.7624 12.6546C63.6982 11.6569 62.2813 11.1228 60.8234 11.1698V11.1698Z" fill="white"/>
</g>
<defs>
<clipPath id="clip0_1_1802">
<rect width="66" height="66" fill="white" transform="translate(0 2.12695) rotate(-1.84672)"/>
</clipPath>
</defs>
</svg>
