<svg width="20" height="20" viewBox="0 0 20 20" fill="none" xmlns="http://www.w3.org/2000/svg">
<path d="M13.9365 12.2642H13.0557L12.7436 11.9631C13.874 10.652 14.4952 8.97813 14.494 7.247C14.494 5.81368 14.069 4.41255 13.2727 3.22078C12.4763 2.02902 11.3445 1.10016 10.0203 0.551648C8.69609 0.00314001 7.23896 -0.140375 5.83318 0.139252C4.4274 0.418879 3.13611 1.10909 2.1226 2.1226C1.10909 3.13611 0.418879 4.4274 0.139252 5.83318C-0.140375 7.23896 0.00314001 8.69609 0.551648 10.0203C1.10016 11.3445 2.02902 12.4763 3.22078 13.2727C4.41255 14.069 5.81368 14.494 7.247 14.494C9.04203 14.494 10.6921 13.8362 11.9631 12.7436L12.2642 13.0557V13.9365L17.8388 19.5L19.5 17.8388L13.9365 12.2642ZM7.247 12.2642C4.47084 12.2642 2.22985 10.0232 2.22985 7.247C2.22985 4.47084 4.47084 2.22985 7.247 2.22985C10.0232 2.22985 12.2642 4.47084 12.2642 7.247C12.2642 10.0232 10.0232 12.2642 7.247 12.2642Z" fill="white"/>
</svg>
